<?xml version="1.0" encoding="UTF-8" standalone="no"?>
<!-- Created with Inkscape (http://www.inkscape.org/) -->

<svg
   xmlns:dc="http://purl.org/dc/elements/1.1/"
   xmlns:cc="http://creativecommons.org/ns#"
   xmlns:rdf="http://www.w3.org/1999/02/22-rdf-syntax-ns#"
   xmlns:svg="http://www.w3.org/2000/svg"
   xmlns="http://www.w3.org/2000/svg"
   xmlns:sodipodi="http://sodipodi.sourceforge.net/DTD/sodipodi-0.dtd"
   xmlns:inkscape="http://www.inkscape.org/namespaces/inkscape"
   id="svg2"
   version="1.1"
   inkscape:version="0.48.2 r9819"
   width="256"
   height="1024"
   sodipodi:docname="zipper_effect.svg"
   inkscape:export-filename="/home/jmclemencon/Documents/supertuxkart/Aota_krak/zipper_effect.png"
   inkscape:export-xdpi="90"
   inkscape:export-ydpi="90">
  <metadata
     id="metadata8">
    <rdf:RDF>
      <cc:Work
         rdf:about="">
        <dc:format>image/svg+xml</dc:format>
        <dc:type
           rdf:resource="http://purl.org/dc/dcmitype/StillImage" />
        <dc:title />
      </cc:Work>
    </rdf:RDF>
  </metadata>
  <defs
     id="defs6">
    <filter
       inkscape:collect="always"
       id="filter3943"
       x="-0.92142969"
       width="2.8428594"
       y="-0.034127025"
       height="1.0682541">
      <feGaussianBlur
         inkscape:collect="always"
         stdDeviation="15.357161"
         id="feGaussianBlur3945" />
    </filter>
    <filter
       inkscape:collect="always"
       id="filter3947"
       x="-0.61428646"
       width="2.2285729"
       y="-0.034127025"
       height="1.0682541">
      <feGaussianBlur
         inkscape:collect="always"
         stdDeviation="15.357161"
         id="feGaussianBlur3949" />
    </filter>
    <filter
       inkscape:collect="always"
       id="filter3955"
       x="-0.92142969"
       width="2.8428594"
       y="-0.034127025"
       height="1.068254">
      <feGaussianBlur
         inkscape:collect="always"
         stdDeviation="15.357161"
         id="feGaussianBlur3957" />
    </filter>
    <filter
       inkscape:collect="always"
       id="filter3959"
       x="-0.61428646"
       width="2.2285729"
       y="-0.034127025"
       height="1.0682541">
      <feGaussianBlur
         inkscape:collect="always"
         stdDeviation="15.357161"
         id="feGaussianBlur3961" />
    </filter>
    <filter
       inkscape:collect="always"
       id="filter4084"
       x="-0.40496172"
       width="1.8099234"
       y="-0.022497873"
       height="1.0449957">
      <feGaussianBlur
         inkscape:collect="always"
         stdDeviation="10.124043"
         id="feGaussianBlur4086" />
    </filter>
    <filter
       inkscape:collect="always"
       id="filter4088"
       x="-0.40496172"
       width="1.8099234"
       y="-0.022497873"
       height="1.0449957">
      <feGaussianBlur
         inkscape:collect="always"
         stdDeviation="10.124043"
         id="feGaussianBlur4090" />
    </filter>
    <filter
       inkscape:collect="always"
       id="filter4092"
       x="-0.40496172"
       width="1.8099234"
       y="-0.022497873"
       height="1.0449957">
      <feGaussianBlur
         inkscape:collect="always"
         stdDeviation="10.124043"
         id="feGaussianBlur4094" />
    </filter>
    <filter
       inkscape:collect="always"
       id="filter4096"
       x="-0.40496172"
       width="1.8099234"
       y="-0.022497873"
       height="1.0449957">
      <feGaussianBlur
         inkscape:collect="always"
         stdDeviation="10.124043"
         id="feGaussianBlur4098" />
    </filter>
    <filter
       inkscape:collect="always"
       id="filter4100"
       x="-1.4602294"
       width="3.9204587"
       y="-0.20726613"
       height="1.4145323">
      <feGaussianBlur
         inkscape:collect="always"
         stdDeviation="10.124043"
         id="feGaussianBlur4102" />
    </filter>
    <filter
       inkscape:collect="always"
       id="filter4104"
       x="-1.4602294"
       width="3.9204587"
       y="-0.20726613"
       height="1.4145323">
      <feGaussianBlur
         inkscape:collect="always"
         stdDeviation="10.124043"
         id="feGaussianBlur4106" />
    </filter>
  </defs>
  <sodipodi:namedview
     pagecolor="#ffffff"
     bordercolor="#666666"
     borderopacity="1"
     objecttolerance="10"
     gridtolerance="10"
     guidetolerance="10"
     inkscape:pageopacity="0"
     inkscape:pageshadow="2"
     inkscape:window-width="1920"
     inkscape:window-height="1056"
     id="namedview4"
     showgrid="true"
     inkscape:zoom="0.8783592"
     inkscape:cx="315.56907"
     inkscape:cy="554.00806"
     inkscape:window-x="0"
     inkscape:window-y="24"
     inkscape:window-maximized="1"
     inkscape:current-layer="g3881">
    <inkscape:grid
       type="xygrid"
       id="grid2988" />
  </sodipodi:namedview>
  <g
     inkscape:groupmode="layer"
     id="layer1"
     inkscape:label="Calque">
    <text
       xml:space="preserve"
       style="font-size:22px;font-style:normal;font-variant:normal;font-weight:normal;font-stretch:normal;line-height:125%;letter-spacing:0px;word-spacing:0px;opacity:0.10000000000000001;fill:#ff6800;fill-opacity:1;stroke:none;font-family:Monospace;-inkscape-font-specification:Monospace;stroke-width:3;stroke-miterlimit:4;stroke-dasharray:none;filter:url(#filter4104)"
       x="24"
       y="-240"
       id="text3799"
       sodipodi:linespacing="125%"
       transform="matrix(0,1,-1,0,0,0)"><tspan
         sodipodi:role="line"
         id="tspan3801"
         x="24"
         y="-240">&lt;0x00042&gt;</tspan></text>
    <rect
       style="opacity:0.2;fill:#b0a900;fill-opacity:1;stroke:#592a00;stroke-width:4;stroke-linecap:round;stroke-linejoin:round;stroke-miterlimit:4;stroke-opacity:1;stroke-dasharray:none"
       id="rect3977"
       width="440"
       height="1120"
       x="-100"
       y="-56" />
    <text
       xml:space="preserve"
       style="font-size:22px;font-style:normal;font-variant:normal;font-weight:normal;font-stretch:normal;line-height:125%;letter-spacing:0px;word-spacing:0px;opacity:0.10000000000000001;fill:#ff6800;fill-opacity:1;stroke:none;font-family:Monospace;-inkscape-font-specification:Monospace;stroke-width:3;stroke-miterlimit:4;stroke-dasharray:none;filter:url(#filter4100)"
       x="24"
       y="-240"
       id="text3799-7"
       sodipodi:linespacing="125%"
       transform="matrix(0,1,-1,0,0,0)"><tspan
         sodipodi:role="line"
         id="tspan3801-2"
         x="24"
         y="-240">&lt;0x00042&gt;</tspan></text>
    <path
       style="fill:none;stroke:#ffd100;stroke-width:3;stroke-linecap:butt;stroke-linejoin:miter;stroke-opacity:1;stroke-miterlimit:4;stroke-dasharray:none;filter:url(#filter4096)"
       d="m 60,-36 0,120 -30,0 0,110 30,0 0,90 30,0 0,210 -50,0 0,170 50,0 0,220 -30,0 0,160"
       id="path3780"
       inkscape:connector-curvature="0"
       sodipodi:nodetypes="cccccccccccccc" />
    <path
       style="fill:none;stroke:#ffc900;stroke-width:3;stroke-linecap:butt;stroke-linejoin:miter;stroke-opacity:1;stroke-miterlimit:4;stroke-dasharray:none;filter:url(#filter4092)"
       d="m 100,1044 0,-120 -30,0 0,-110 30,0 0,-90 30,0 0,-210 -50,0 0,-170 50,0 0,-220 -30,0 0,-160"
       id="path3780-1"
       inkscape:connector-curvature="0"
       sodipodi:nodetypes="cccccccccccccc" />
    <path
       style="fill:none;stroke:#ffd100;stroke-width:3;stroke-linecap:butt;stroke-linejoin:miter;stroke-opacity:1;stroke-miterlimit:4;stroke-dasharray:none;filter:url(#filter4088)"
       d="m 160,1044 0,-120 -30,0 0,-180 60,0 0,-370 -50,0 0,-250 50,0 0,-60 -30,0 0,-100"
       id="path3780-1-0"
       inkscape:connector-curvature="0"
       sodipodi:nodetypes="cccccccccccc" />
    <path
       style="fill:none;stroke:#ffc900;stroke-width:3;stroke-linecap:butt;stroke-linejoin:miter;stroke-opacity:1;stroke-miterlimit:4;stroke-dasharray:none;filter:url(#filter4084)"
       d="m 200,-36 0,120 -30,0 0,180 60,0 0,370 -50,0 0,250 50,0 0,60 -30,0 0,100"
       id="path3780-1-0-7"
       inkscape:connector-curvature="0"
       sodipodi:nodetypes="cccccccccccc" />
    <g
       id="g3881"
       transform="translate(0,-10)">
      <text
         transform="matrix(0,1,-1,0,0,0)"
         sodipodi:linespacing="125%"
         id="text3799-1"
         y="-240"
         x="24"
         style="font-size:22px;font-style:normal;font-variant:normal;font-weight:normal;font-stretch:normal;line-height:125%;letter-spacing:0px;word-spacing:0px;opacity:0.1;fill:#ff6800;fill-opacity:1;stroke:none;font-family:Monospace;-inkscape-font-specification:Monospace"
         xml:space="preserve"><tspan
           y="-240"
           x="24"
           id="tspan3801-1"
           sodipodi:role="line">&lt;be happy&gt;</tspan></text>
      <text
         transform="matrix(0,1,-1,0,0,0)"
         sodipodi:linespacing="125%"
         id="text3799-7-2"
         y="-240"
         x="24"
         style="font-size:22px;font-style:normal;font-variant:normal;font-weight:normal;font-stretch:normal;line-height:125%;letter-spacing:0px;word-spacing:0px;opacity:0.1;fill:#ff6800;fill-opacity:1;stroke:none;font-family:Monospace;-inkscape-font-specification:Monospace"
         xml:space="preserve"><tspan
           y="-240"
           x="24"
           id="tspan3801-2-0"
           sodipodi:role="line" /></text>
      <path
         sodipodi:nodetypes="cccccccccccccc"
         inkscape:connector-curvature="0"
         id="path3780-8"
         d="m 60,-36 0,120 -30,0 0,110 30,0 0,90 30,0 0,210 -50,0 0,170 50,0 0,220 -30,0 0,160"
         style="fill:none;stroke:#ffd100;stroke-width:3;stroke-linecap:butt;stroke-linejoin:miter;stroke-miterlimit:4;stroke-opacity:1;stroke-dasharray:none" />
      <path
         sodipodi:nodetypes="cccccccccccccc"
         inkscape:connector-curvature="0"
         id="path3780-1-8"
         d="m 100,1044 0,-120 -30,0 0,-110 30,0 0,-90 30,0 0,-210 -50,0 0,-170 50,0 0,-220 -30,0 0,-160"
         style="fill:none;stroke:#ffc900;stroke-width:3;stroke-linecap:butt;stroke-linejoin:miter;stroke-miterlimit:4;stroke-opacity:1;stroke-dasharray:none" />
      <path
         sodipodi:nodetypes="cccccccccccc"
         inkscape:connector-curvature="0"
         id="path3780-1-0-71"
         d="m 160,1044 0,-120 -30,0 0,-180 60,0 0,-370 -50,0 0,-250 50,0 0,-60 -30,0 0,-100"
         style="fill:none;stroke:#ffd100;stroke-width:3;stroke-linecap:butt;stroke-linejoin:miter;stroke-miterlimit:4;stroke-opacity:1;stroke-dasharray:none" />
      <path
         sodipodi:nodetypes="cccccccccccc"
         inkscape:connector-curvature="0"
         id="path3780-1-0-7-0"
         d="m 200,-36 0,120 -30,0 0,180 60,0 0,370 -50,0 0,250 50,0 0,60 -30,0 0,100"
         style="fill:none;stroke:#ffc900;stroke-width:3;stroke-linecap:butt;stroke-linejoin:miter;stroke-miterlimit:4;stroke-opacity:1;stroke-dasharray:none" />
    </g>
  </g>
</svg>
