# Blender v2.66 (sub 1) OBJ File: 'nature.blend'
# www.blender.org
o Plane.008_Plane.013
v 0.938922 -0.059699 1.361426
v 0.938922 1.753434 1.361426
v 0.244279 -0.059699 0.293733
v 0.244279 1.753434 0.293733
v 0.408310 0.151016 0.795421
v 0.408310 1.347605 0.795421
v 0.633259 0.151016 -0.014557
v 0.633259 1.347605 -0.014557
v 0.628394 0.151016 0.312762
v 0.628394 1.347605 0.312762
v 0.172470 0.151016 -0.393496
v 0.172470 1.347605 -0.393496
v 0.163961 0.151016 -0.053837
v 0.163961 1.347605 -0.053837
v 0.290571 0.151016 -0.884882
v 0.290571 1.347605 -0.884882
v 0.135695 -0.003611 -0.539126
v 0.160935 1.564824 -0.454096
v 0.293597 0.111096 -1.630249
v 0.318836 1.679531 -1.545219
v 0.160006 0.213958 -1.137809
v 0.137747 1.601478 -1.215295
v 0.316785 0.110124 -2.100499
v 0.294526 1.497644 -2.177985
v 0.560756 0.019332 2.343874
v 0.867197 1.776204 2.416147
v 0.806068 0.036813 1.094007
v 1.112509 1.793685 1.166279
v 0.107104 0.195629 3.020255
v 0.378651 1.752447 3.084298
v 0.324483 0.211119 1.912709
v 0.596030 1.767937 1.976752
v 0.107104 0.136738 3.811627
v 0.378651 1.693556 3.875669
v 0.324483 0.152228 2.704080
v 0.596030 1.709046 2.768123
v 0.223613 0.446568 4.459863
v 0.362280 1.149580 4.456169
v 0.340854 0.394411 3.961790
v 0.479522 1.097422 3.958097
v 1.341060 0.010596 1.711773
v 1.341060 1.633622 1.711773
v 0.719251 0.010596 0.756027
v 0.719251 1.633622 0.756027
v 0.685136 0.151016 1.135317
v 0.685136 1.347605 1.135317
v 0.910084 0.151016 0.325338
v 0.910084 1.347605 0.325338
v 0.905219 0.151016 0.652658
v 0.905219 1.347605 0.652658
v 0.449295 0.151016 -0.053600
v 0.449295 1.347605 -0.053600
v 0.449672 0.203593 0.227733
v 0.449672 1.232221 0.227733
v 0.558511 0.203593 -0.486662
v 0.558511 1.232221 -0.486662
v 0.396094 0.017785 -0.152459
v 0.410452 1.591054 -0.165317
v 0.597732 -0.003940 -1.239237
v 0.612089 1.569330 -1.252095
v 0.462862 0.061752 -0.867583
v 0.454387 1.450342 -0.797145
v 0.553796 0.162703 -1.838858
v 0.545321 1.551293 -1.768420
v 0.906464 0.102633 2.536754
v 1.136391 1.420833 2.590981
v 1.090525 0.115749 1.598964
v 1.320451 1.433949 1.653191
v 0.491106 0.327673 3.131407
v 0.643603 1.201961 3.167373
v 0.613183 0.336372 2.509424
v 0.765680 1.210660 2.545390
v 0.429687 0.083603 4.053865
v 0.650408 1.349029 4.105920
v 0.606378 0.096194 3.153620
v 0.827099 1.361620 3.205675
v 0.503495 0.369596 4.793765
v 0.638850 1.055813 4.790159
v 0.617936 0.318685 4.307591
v 0.753291 1.004902 4.303987
v 0.311848 -0.059699 1.399736
v 0.311848 1.753434 1.399736
v 0.871353 -0.059699 0.255423
v 0.871353 1.753434 0.255423
v 0.115509 0.151016 0.501871
v 0.115509 1.347605 0.501871
v 0.926060 0.151016 0.278993
v 0.926060 1.347605 0.278993
v 0.214465 0.151016 0.336572
v 0.214465 1.347605 0.336572
v 0.586398 0.151016 -0.417306
v 0.586398 1.347605 -0.417306
v -0.161801 0.151016 -0.310319
v -0.161801 1.347605 -0.310319
v 0.616332 0.151016 -0.628400
v 0.616332 1.347605 -0.628400
v -0.251419 -0.003611 -0.862446
v -0.311424 1.564824 -0.797126
v 0.765955 0.111096 -1.287219
v 0.705950 1.679531 -1.221900
v -0.253559 0.213958 -1.448558
v -0.198498 1.601478 -1.507446
v 0.653030 0.110124 -1.808348
v 0.708091 1.497644 -1.867236
v 0.189727 0.019332 1.820682
v 0.285061 1.776204 2.120750
v 1.388203 0.036813 1.389404
v 1.483537 1.793685 1.689472
v -0.221676 0.195629 2.556638
v -0.137197 1.752447 2.822537
v 0.840331 0.211119 2.174469
v 0.924810 1.767937 2.440368
v -0.221676 0.136738 3.348009
v -0.137197 1.693556 3.613909
v 0.840331 0.152228 2.965840
v 0.924810 1.709046 3.231740
v 0.070582 0.446568 4.228004
v 0.144955 1.149580 4.345099
v 0.558180 0.394411 4.072861
v 0.632552 1.097422 4.189955
v 0.779735 0.010596 1.746066
v 0.779735 1.633622 1.746066
v 1.280576 0.010596 0.721734
v 1.280576 1.633622 0.721734
v 0.392335 0.151016 0.841767
v 0.392335 1.347605 0.841767
v 1.202885 0.151016 0.618888
v 1.202885 1.347605 0.618888
v 0.491291 0.151016 0.676468
v 0.491291 1.347605 0.676468
v 0.863224 0.151016 -0.077411
v 0.863224 1.347605 -0.077411
v 0.169637 0.203593 0.007252
v 0.169637 1.232221 0.007252
v 0.838546 0.203593 -0.266181
v 0.838546 1.232221 -0.266181
v -0.023163 0.017785 -0.512630
v -0.004757 1.591054 -0.506912
v 1.012940 -0.003940 -0.897642
v 1.031346 1.569330 -0.891924
v 0.096416 0.061752 -1.122100
v 0.031622 1.450342 -1.093203
v 0.976561 0.162703 -1.542799
v 0.911767 1.551293 -1.513903
v 0.628078 0.102633 2.144197
v 0.699608 1.420833 2.369342
v 1.527308 0.115749 1.820604
v 1.598838 1.433949 2.045748
v 0.306467 0.327673 2.871047
v 0.353909 1.201961 3.020372
v 0.902876 0.336372 2.656425
v 0.950318 1.210660 2.805751
v 0.162444 0.083603 3.677024
v 0.231112 1.349029 3.893154
v 1.025674 0.096194 3.366385
v 1.094341 1.361620 3.582516
v 0.354120 0.369596 4.567447
v 0.426716 1.055813 4.681744
v 0.830070 0.318685 4.416007
v 0.902665 1.004902 4.530305
v 1.219861 -0.059699 0.932043
v 1.219861 1.753434 0.932043
v -0.036661 -0.059699 0.723117
v -0.036661 1.753434 0.723117
v 0.743459 0.151016 0.746919
v 0.743459 1.347605 0.746919
v 0.298110 0.151016 0.033946
v 0.298110 1.347605 0.033946
v 0.814809 0.151016 0.030049
v 0.814809 1.347605 0.030049
v -0.013945 0.151016 -0.110783
v -0.013945 1.347605 -0.110783
v 0.490919 0.151016 -0.142016
v 0.490919 1.347605 -0.142016
v -0.036387 0.151016 -0.796703
v -0.036387 1.347605 -0.796703
v 0.536368 -0.003611 -0.634869
v 0.616119 1.564824 -0.596047
v -0.161587 0.111096 -1.488298
v -0.081836 1.679531 -1.449476
v 0.565356 0.213958 -1.257009
v 0.493182 1.601478 -1.292932
v -0.038650 0.110124 -2.022861
v -0.110824 1.497644 -2.058784
v 1.084481 0.019332 2.356210
v 1.344759 1.776204 2.179052
v 0.328506 0.036813 1.331102
v 0.588784 1.793685 1.153943
v 0.571193 0.195629 3.031186
v 0.801833 1.752447 2.874201
v -0.098699 0.211119 2.122805
v 0.131941 1.767937 1.965820
v 0.571194 0.136738 3.822558
v 0.801834 1.693556 3.665572
v -0.098699 0.152228 2.914176
v 0.131941 1.709046 2.757191
v 0.450146 0.446568 4.472793
v 0.541084 1.149580 4.368041
v 0.162050 0.394411 4.049918
v 0.252988 1.097422 3.945167
v 1.592543 0.010596 1.327410
v 1.592543 1.633622 1.327410
v 0.467768 0.010596 1.140390
v 0.467768 1.633622 1.140390
v 1.020285 0.151016 1.086814
v 1.020285 1.347605 1.086814
v 0.574936 0.151016 0.373841
v 0.574936 1.347605 0.373841
v 1.091635 0.151016 0.369944
v 1.091635 1.347605 0.369944
v 0.262880 0.151016 0.229113
v 0.262880 1.347605 0.229113
v 0.730737 0.203593 0.151931
v 0.730737 1.232221 0.151931
v 0.277446 0.203593 -0.410860
v 0.277446 1.232221 -0.410860
v 0.836588 0.017785 -0.251268
v 0.836805 1.591054 -0.270541
v 0.171378 -0.003940 -1.134014
v 0.171595 1.569330 -1.153286
v 0.808388 0.061752 -0.983366
v 0.854606 1.450342 -0.929541
v 0.153577 0.162703 -1.706462
v 0.199795 1.551293 -1.652636
v 1.299421 0.102633 2.546009
v 1.494711 1.420833 2.413086
v 0.732205 0.115749 1.776859
v 0.927495 1.433949 1.643935
v 0.751732 0.327673 3.137547
v 0.881257 1.201961 3.049386
v 0.375529 0.336372 2.627412
v 0.505054 1.210660 2.539251
v 0.806912 0.083603 4.062750
v 0.994382 1.349029 3.935147
v 0.262403 0.096194 3.324392
v 0.449875 1.361620 3.196790
v 0.724617 0.369596 4.806385
v 0.813382 1.055813 4.704137
v 0.443403 0.318685 4.393613
v 0.532170 1.004902 4.291366
vt 0.046903 0.450734
vt 0.046903 0.000100
vt 0.953097 0.000100
vt 0.953097 0.450734
s off
f 2/1 1/2 3/3 4/4
f 6/1 5/2 7/3 8/4
f 10/1 9/2 11/3 12/4
f 14/1 13/2 15/3 16/4
f 18/1 17/2 19/3 20/4
f 22/1 21/2 23/3 24/4
f 26/1 25/2 27/3 28/4
f 30/1 29/2 31/3 32/4
f 34/1 33/2 35/3 36/4
f 38/1 37/2 39/3 40/4
f 42/1 41/2 43/3 44/4
f 46/1 45/2 47/3 48/4
f 50/1 49/2 51/3 52/4
f 54/1 53/2 55/3 56/4
f 58/1 57/2 59/3 60/4
f 62/1 61/2 63/3 64/4
f 66/1 65/2 67/3 68/4
f 70/1 69/2 71/3 72/4
f 74/1 73/2 75/3 76/4
f 78/1 77/2 79/3 80/4
f 82/1 81/2 83/3 84/4
f 86/1 85/2 87/3 88/4
f 90/1 89/2 91/3 92/4
f 94/1 93/2 95/3 96/4
f 98/1 97/2 99/3 100/4
f 102/1 101/2 103/3 104/4
f 106/1 105/2 107/3 108/4
f 110/1 109/2 111/3 112/4
f 114/1 113/2 115/3 116/4
f 118/1 117/2 119/3 120/4
f 122/1 121/2 123/3 124/4
f 126/1 125/2 127/3 128/4
f 130/1 129/2 131/3 132/4
f 134/1 133/2 135/3 136/4
f 138/1 137/2 139/3 140/4
f 142/1 141/2 143/3 144/4
f 146/1 145/2 147/3 148/4
f 150/1 149/2 151/3 152/4
f 154/1 153/2 155/3 156/4
f 158/1 157/2 159/3 160/4
f 162/1 161/2 163/3 164/4
f 166/1 165/2 167/3 168/4
f 170/1 169/2 171/3 172/4
f 174/1 173/2 175/3 176/4
f 178/1 177/2 179/3 180/4
f 182/1 181/2 183/3 184/4
f 186/1 185/2 187/3 188/4
f 190/1 189/2 191/3 192/4
f 194/1 193/2 195/3 196/4
f 198/1 197/2 199/3 200/4
f 202/1 201/2 203/3 204/4
f 206/1 205/2 207/3 208/4
f 210/1 209/2 211/3 212/4
f 214/1 213/2 215/3 216/4
f 218/1 217/2 219/3 220/4
f 222/1 221/2 223/3 224/4
f 226/1 225/2 227/3 228/4
f 230/1 229/2 231/3 232/4
f 234/1 233/2 235/3 236/4
f 238/1 237/2 239/3 240/4
