<?xml version="1.0" encoding="utf-8"?>
<!-- Generator: Adobe Illustrator 14.0.0, SVG Export Plug-In . SVG Version: 6.00 Build 43363)  -->
<!DOCTYPE svg PUBLIC "-//W3C//DTD SVG 1.1//EN" "http://www.w3.org/Graphics/SVG/1.1/DTD/svg11.dtd">
<svg version="1.1" id="Layer_1" xmlns="http://www.w3.org/2000/svg" xmlns:xlink="http://www.w3.org/1999/xlink" x="0px" y="0px"
	 width="64px" height="64px" viewBox="0 0 64 64" enable-background="new 0 0 64 64" xml:space="preserve">
<g>
	<g>
		<g>
			<path fill="#231F20" stroke="#231F20" stroke-width="4" stroke-linecap="round" stroke-linejoin="round" d="M61.692,56.277
				l-4.694-46.239c-0.159-1.563-1.328-2.83-2.611-2.83H11.392c-1.284,0-2.463,1.267-2.634,2.83L3.692,56.277H61.692z"/>
			<g>
				<linearGradient id="SVGID_1_" gradientUnits="userSpaceOnUse" x1="30.3052" y1="30.0098" x2="32.7845" y2="57.282">
					<stop  offset="0" style="stop-color:#EEEFEF"/>
					<stop  offset="1" style="stop-color:#D0D0D3"/>
				</linearGradient>
				<path fill="url(#SVGID_1_)" d="M61.693,56.277l-4.694-46.239c-0.159-1.563-1.328-2.83-2.611-2.83H11.392
					c-1.283,0-2.462,1.267-2.634,2.83L3.693,56.277H61.693z"/>
				<linearGradient id="SVGID_2_" gradientUnits="userSpaceOnUse" x1="33.376" y1="19.9033" x2="33.126" y2="43.1462">
					<stop  offset="0" style="stop-color:#EEEFEF"/>
					<stop  offset="1" style="stop-color:#A6A7AA"/>
				</linearGradient>
				<path fill="url(#SVGID_2_)" d="M58.615,27.061l-1.004-9.928c-1.408,0.512-5.145,2.852-6.503,3.704
					c-1.072-1.528-7.595-11.625-11.104-12.559c-11.853,3.75-11.853,3.75-11.853,3.75s7.374,9.611,8.986,14.689
					c-0.256-0.18-0.496-0.318-0.523-0.221c-9.908,5.076-17.889-0.362-17.889-0.362s-2.408-5.731-3.747-14.606
					c-0.553-0.525-2.536-1.645-5.374-2.629c-0.558,0.519-0.966,1.279-1.061,2.139l-1.21,10.999c4.596,2.476,11.184,5.33,11.184,5.33
					s0,0,4.609,10.879c-7.426-3.762-13.017-5.143-16.969-5.523L4.492,47.877c12.916-1.26,28.077,8.15,28.077,8.15l-1.243-2.553
					c0,0,0,0-6.365-13.344c14.489,7.18,22.396,2.756,22.396,2.756s6.943,9.461,10.239,13.391h3.972l-2.521-24.939
					c-1.613,1.746-3.794,4.109-4.329,4.586c-3.194,4.352-7.146,5.803-7.146,5.803l-9.782-14.504
					c1.934-1.083,9.573-5.385,12.86-6.099c-0.02,0.012-0.047,0.029-0.047,0.029S56.571,24.767,58.615,27.061z"/>
			</g>
			<linearGradient id="SVGID_3_" gradientUnits="userSpaceOnUse" x1="15.3315" y1="19.6992" x2="15.0806" y2="43.0342">
				<stop  offset="0" style="stop-color:#EEEFEF"/>
				<stop  offset="1" style="stop-color:#A6A7AA"/>
			</linearGradient>
			<path fill="url(#SVGID_3_)" d="M7.136,32.811l-0.012,0.112c3.885,0.494,9.176,1.923,16.074,5.411
				c-0.086-0.193-0.167-0.376-0.249-0.563C16.106,34.453,10.876,33.171,7.136,32.811z"/>
			<linearGradient id="SVGID_4_" gradientUnits="userSpaceOnUse" x1="44.5547" y1="20.1753" x2="44.3055" y2="43.345">
				<stop  offset="0" style="stop-color:#EEEFEF"/>
				<stop  offset="1" style="stop-color:#A6A7AA"/>
			</linearGradient>
			<path fill="url(#SVGID_4_)" d="M40.933,44.316c3.406,0.061,5.667-0.602,6.735-1.018c-0.141-0.197-0.231-0.324-0.231-0.324
				S45.235,44.221,40.933,44.316z"/>
			<g opacity="0.6">
				<linearGradient id="SVGID_5_" gradientUnits="userSpaceOnUse" x1="45.3271" y1="20.0586" x2="45.0546" y2="45.4071">
					<stop  offset="0" style="stop-color:#EEEFEF"/>
					<stop  offset="1" style="stop-color:#A6A7AA"/>
				</linearGradient>
				<path fill="url(#SVGID_5_)" d="M39.006,7.234c-0.158,0.051,1.584,1.23,1.43,1.28c3.566,1.474,9.71,10.933,10.748,12.41
					c0.167-0.105,0.373-0.233,0.606-0.377C50.15,18.186,43.629,8.645,39.006,7.234z"/>
				<linearGradient id="SVGID_6_" gradientUnits="userSpaceOnUse" x1="18.8867" y1="19.6763" x2="18.633" y2="43.2678">
					<stop  offset="0" style="stop-color:#EEEFEF"/>
					<stop  offset="1" style="stop-color:#A6A7AA"/>
				</linearGradient>
				<path fill="url(#SVGID_6_)" d="M18.79,26.222c0,0,3.855,2.651,9.64,2.52c-5.286-0.14-8.75-2.52-8.75-2.52
					s-2.432-5.731-3.807-14.606c-0.556-0.525-3.672-1.898-6.507-2.883c-0.074,0.069,0.985,0.406,0.917,0.483
					c2.499,0.924,4.241,1.915,4.752,2.4C16.379,20.491,18.79,26.222,18.79,26.222z"/>
				<linearGradient id="SVGID_7_" gradientUnits="userSpaceOnUse" x1="44.4375" y1="20.1152" x2="44.1877" y2="43.3447">
					<stop  offset="0" style="stop-color:#EEEFEF"/>
					<stop  offset="1" style="stop-color:#A6A7AA"/>
				</linearGradient>
				<path fill="url(#SVGID_7_)" d="M50.679,21.241c0,0,0.027-0.017,0.047-0.029c-3.288,0.713-10.93,5.015-12.863,6.099l9.79,14.504
					c0,0,0.269-0.1,0.719-0.318L38.757,27.31c1.808-1.014,8.618-4.848,12.164-5.919C50.768,21.295,50.679,21.241,50.679,21.241z"/>
				<linearGradient id="SVGID_8_" gradientUnits="userSpaceOnUse" x1="29.6426" y1="19.916" x2="29.3925" y2="43.1737">
					<stop  offset="0" style="stop-color:#EEEFEF"/>
					<stop  offset="1" style="stop-color:#A6A7AA"/>
				</linearGradient>
				<path fill="url(#SVGID_8_)" d="M26.245,40.813c-0.401-0.189-0.804-0.386-1.213-0.594c6.371,13.344,6.371,13.344,6.371,13.344
					l0.864,1.777c0.879,0.479,1.379,0.775,1.379,0.775l-1.253-2.553C32.393,53.563,32.388,53.553,26.245,40.813z"/>
			</g>
		</g>
	</g>
	<g>
		<g>
			<path fill="#231F20" stroke="#231F20" stroke-width="2" d="M36.421,13.589v35.769h5.438c1.155,0,1.734,0.563,1.734,1.688
				c0,1.126-0.579,1.688-1.734,1.688H24.936c-1.125,0-1.656-0.562-1.594-1.688c0.125-1.125,0.75-1.688,1.875-1.688h5.438
				l3.001-34.079H28.17c-1.156,0-1.656-0.563-1.5-1.689c0.031-1.125,0.625-1.686,1.781-1.686h6.329
				C35.874,11.903,36.421,12.464,36.421,13.589z"/>
		</g>
		<g>
			<linearGradient id="SVGID_9_" gradientUnits="userSpaceOnUse" x1="29.2949" y1="28.8721" x2="32.0566" y2="43.4693">
				<stop  offset="0" style="stop-color:#ACD151"/>
				<stop  offset="1" style="stop-color:#89A852"/>
			</linearGradient>
			<path fill="url(#SVGID_9_)" d="M36.421,13.388v35.768h5.438c1.155,0,1.734,0.563,1.734,1.688c0,1.126-0.579,1.688-1.734,1.688
				H24.936c-1.125,0-1.656-0.562-1.594-1.688c0.125-1.125,0.75-1.688,1.875-1.688h5.438l3.001-34.08H28.17
				c-1.156,0-1.656-0.563-1.5-1.688c0.031-1.125,0.625-1.687,1.781-1.687h6.329C35.874,11.702,36.421,12.263,36.421,13.388z"/>
		</g>
	</g>
</g>
</svg>
