<?xml version="1.0" encoding="utf-8"?>
<!-- Generator: Adobe Illustrator 14.0.0, SVG Export Plug-In . SVG Version: 6.00 Build 43363)  -->
<!DOCTYPE svg PUBLIC "-//W3C//DTD SVG 1.1//EN" "http://www.w3.org/Graphics/SVG/1.1/DTD/svg11.dtd">
<svg version="1.1" id="Layer_1" xmlns="http://www.w3.org/2000/svg" xmlns:xlink="http://www.w3.org/1999/xlink" x="0px" y="0px"
	 width="64px" height="64px" viewBox="0 0 64 64" enable-background="new 0 0 64 64" xml:space="preserve">
<g>
	<g>
		<g>
			<path stroke="#000000" stroke-width="4" stroke-linecap="round" stroke-linejoin="round" d="M45.846,43.325
				c0,1.148-0.932,2.082-2.082,2.082H20.865c-1.149,0-2.081-0.934-2.081-2.082V20.427c0-1.148,0.932-2.08,2.081-2.08h22.898
				c1.15,0,2.082,0.932,2.082,2.08V43.325z"/>
			<linearGradient id="SVGID_1_" gradientUnits="userSpaceOnUse" x1="31.4561" y1="26.6118" x2="33.8847" y2="43.6125">
				<stop  offset="0" style="stop-color:#71CDE5"/>
				<stop  offset="1" style="stop-color:#36A1C1"/>
			</linearGradient>
			<path fill="url(#SVGID_1_)" d="M45.729,43.259c0,1.148-0.932,2.08-2.082,2.08H20.749c-1.147,0-2.081-0.932-2.081-2.08V20.36
				c0-1.148,0.934-2.082,2.081-2.082h22.897c1.15,0,2.082,0.934,2.082,2.082V43.259z"/>
		</g>
		<g>
			<path fill="#231F20" stroke="#231F20" stroke-width="3.5139" stroke-linecap="round" stroke-linejoin="round" d="M50.547,32.485
				h5.037c0.023,0,0.045-0.007,0.066-0.012c0.004-0.002,0.004-0.002,0.008-0.002l-0.033,2.533l6.443-3.778l-6.336-4.642l-0.027,2.28
				c-0.113-0.007-3.807,0.004-4.219,0.004h-0.939c-0.123,0-0.227,0.1-0.227,0.225v3.167C50.32,32.385,50.424,32.485,50.547,32.485z"
				/>
			<g>
				
					<linearGradient id="SVGID_2_" gradientUnits="userSpaceOnUse" x1="-930.4258" y1="-1327.1006" x2="-922.8748" y2="-1326.7874" gradientTransform="matrix(-1 0 0 -1 -871.0186 -1296.0908)">
					<stop  offset="0" style="stop-color:#B92326"/>
					<stop  offset="1" style="stop-color:#ED2A25"/>
				</linearGradient>
				<path fill="url(#SVGID_2_)" d="M50.547,32.548h5.037c0.023,0,0.045-0.007,0.066-0.013c0.004-0.001,0.004-0.001,0.008-0.001
					l-0.033,2.53l6.443-3.776l-6.336-4.643l-0.027,2.281c-0.113-0.005-3.807,0.002-4.219,0.002h-0.939
					c-0.123,0-0.227,0.102-0.227,0.225v3.168C50.32,32.446,50.424,32.548,50.547,32.548z"/>
				
					<linearGradient id="SVGID_3_" gradientUnits="userSpaceOnUse" x1="-933.0869" y1="-1326.9819" x2="-921.3389" y2="-1326.9819" gradientTransform="matrix(-1 0 0 -1 -871.0186 -1296.0908)">
					<stop  offset="0" style="stop-color:#ACD151"/>
					<stop  offset="1" style="stop-color:#89A852"/>
				</linearGradient>
				<path opacity="0.91" fill="url(#SVGID_3_)" d="M55.9,26.803l-0.168-0.121l-0.023,2.29c0.096,0,0.158-0.039,0.17-0.039
					L55.9,26.803z M50.547,32.582h5.037c0.023,0,0.045-0.006,0.066-0.013c0.004,0,0.006,0,0.008,0l-0.033,2.531l6.443-3.776
					l-0.238-0.177l-6.031,3.536l0.035-2.532c-0.002,0-0.006,0-0.01,0c-0.021,0.009-0.041,0.014-0.066,0.014h-5.035
					c-0.127,0-0.229-0.1-0.229-0.225v-2.965c-0.098,0.023-0.174,0.109-0.174,0.214v3.168C50.32,32.482,50.424,32.582,50.547,32.582z
					"/>
			</g>
		</g>
		<g>
			<path fill="#231F20" stroke="#231F20" stroke-width="3.5139" stroke-linecap="round" stroke-linejoin="round" d="M14.062,29.2
				H9.024c-0.022,0-0.045,0.007-0.066,0.012c-0.003,0.002-0.004,0.002-0.008,0.002l0.033-2.533L2.54,30.459l6.336,4.642l0.028-2.28
				c0.113,0.007,3.807-0.004,4.219-0.004h0.938c0.124,0,0.227-0.1,0.227-0.225v-3.167C14.288,29.301,14.186,29.2,14.062,29.2z"/>
			<g>
				
					<linearGradient id="SVGID_4_" gradientUnits="userSpaceOnUse" x1="-1066.8022" y1="-1370.9131" x2="-1059.2512" y2="-1370.5999" gradientTransform="matrix(1 0 0 1 1072.0029 1401.5889)">
					<stop  offset="0" style="stop-color:#B92326"/>
					<stop  offset="1" style="stop-color:#ED2A25"/>
				</linearGradient>
				<path fill="url(#SVGID_4_)" d="M14.062,29.138H9.024c-0.022,0-0.045,0.007-0.066,0.013c-0.003,0.001-0.004,0.001-0.008,0.001
					l0.033-2.53L2.54,30.397l6.336,4.643l0.028-2.281c0.113,0.005,3.807-0.002,4.219-0.002h0.938c0.124,0,0.227-0.102,0.227-0.225
					v-3.168C14.288,29.239,14.186,29.138,14.062,29.138z"/>
				
					<linearGradient id="SVGID_5_" gradientUnits="userSpaceOnUse" x1="-1069.4629" y1="-1370.7944" x2="-1057.7148" y2="-1370.7944" gradientTransform="matrix(1 0 0 1 1072.0029 1401.5889)">
					<stop  offset="0" style="stop-color:#ACD151"/>
					<stop  offset="1" style="stop-color:#89A852"/>
				</linearGradient>
				<path opacity="0.91" fill="url(#SVGID_5_)" d="M8.708,34.883l0.168,0.121l0.023-2.29c-0.096,0-0.157,0.039-0.169,0.039
					L8.708,34.883z M14.063,29.104H9.024c-0.023,0-0.045,0.006-0.066,0.013c-0.003,0-0.005,0-0.008,0l0.033-2.531L2.54,30.361
					l0.239,0.177l6.03-3.536l-0.034,2.532c0.002,0,0.006,0,0.009,0c0.021-0.009,0.042-0.014,0.066-0.014h5.036
					c0.126,0,0.228,0.1,0.228,0.225v2.965c0.098-0.023,0.174-0.109,0.174-0.214v-3.168C14.288,29.203,14.186,29.104,14.063,29.104z"
					/>
			</g>
		</g>
		<g>
			<g>
				<path fill="#231F20" stroke="#231F20" stroke-width="3.5139" stroke-linecap="round" stroke-linejoin="round" d="M30.912,50.17
					v5.036c0,0.023,0.007,0.046,0.012,0.067c0.002,0.002,0.002,0.003,0.002,0.008l-2.533-0.033l3.778,6.443l4.642-6.337
					l-2.281-0.027c0.008-0.113-0.004-3.808-0.004-4.219V50.17c0-0.124-0.1-0.228-0.225-0.227h-3.166
					C31.013,49.943,30.912,50.045,30.912,50.17z"/>
				<g>
					<linearGradient id="SVGID_6_" gradientUnits="userSpaceOnUse" x1="28.333" y1="55.8164" x2="36.752" y2="55.8164">
						<stop  offset="0" style="stop-color:#B92326"/>
						<stop  offset="1" style="stop-color:#ED2A25"/>
					</linearGradient>
					<path fill="url(#SVGID_6_)" d="M30.85,50.17v5.036c-0.001,0.023,0.007,0.046,0.013,0.066c0,0.004,0.001,0.004,0.001,0.009
						l-2.53-0.033l3.776,6.442l4.643-6.336l-2.281-0.028c0.004-0.112-0.002-3.807-0.002-4.218l-0.002-0.938
						c0.002-0.124-0.1-0.227-0.223-0.227h-3.168C30.951,49.942,30.85,50.045,30.85,50.17z"/>
					
						<linearGradient id="SVGID_7_" gradientUnits="userSpaceOnUse" x1="-1036.4785" y1="-1430.5205" x2="-1024.7305" y2="-1430.5205" gradientTransform="matrix(0 -1 1 0 1463.0264 -974.7871)">
						<stop  offset="0" style="stop-color:#ACD151"/>
						<stop  offset="1" style="stop-color:#89A852"/>
					</linearGradient>
					<path opacity="0.91" fill="url(#SVGID_7_)" d="M36.594,55.523l0.121-0.169l-2.289-0.023c-0.002,0.097,0.039,0.158,0.039,0.17
						L36.594,55.523z M30.815,50.168v5.038c0,0.023,0.006,0.045,0.013,0.067c0,0.003-0.001,0.005-0.001,0.008l-2.53-0.034
						l3.775,6.444l0.178-0.24l-3.536-6.03l2.532,0.035c0-0.003,0-0.007,0-0.01c-0.009-0.021-0.014-0.041-0.014-0.065v-5.036
						c0-0.127,0.1-0.228,0.225-0.229h2.965c-0.023-0.097-0.111-0.173-0.215-0.173H31.04C30.914,49.943,30.815,50.045,30.815,50.168z
						"/>
				</g>
			</g>
			<g>
				<path fill="#231F20" stroke="#231F20" stroke-width="3.5139" stroke-linecap="round" stroke-linejoin="round" d="M34.197,13.684
					V8.646c0-0.022-0.008-0.045-0.012-0.066c-0.002-0.002-0.002-0.003-0.002-0.008l2.533,0.034l-3.778-6.444l-4.642,6.336
					l2.28,0.028c-0.007,0.113,0.004,3.807,0.004,4.218v0.939c0,0.123,0.099,0.227,0.225,0.227h3.167
					C34.096,13.91,34.197,13.807,34.197,13.684z"/>
				<g>
					
						<linearGradient id="SVGID_8_" gradientUnits="userSpaceOnUse" x1="-963.4121" y1="-1267.375" x2="-955.8611" y2="-1267.0618" gradientTransform="matrix(0 1 -1 0 -1234.6543 968.2349)">
						<stop  offset="0" style="stop-color:#B92326"/>
						<stop  offset="1" style="stop-color:#ED2A25"/>
					</linearGradient>
					<path fill="url(#SVGID_8_)" d="M34.26,13.684V8.646c0-0.023-0.008-0.045-0.014-0.067c0-0.003,0-0.003,0-0.007l2.529,0.033
						L33,2.162l-4.643,6.335l2.281,0.029c-0.005,0.113,0.001,3.807,0.002,4.218v0.938c0,0.124,0.102,0.228,0.225,0.228h3.168
						C34.156,13.91,34.26,13.808,34.26,13.684z"/>
					
						<linearGradient id="SVGID_9_" gradientUnits="userSpaceOnUse" x1="-966.0728" y1="-1267.2573" x2="-954.3247" y2="-1267.2573" gradientTransform="matrix(0 1 -1 0 -1234.6543 968.2349)">
						<stop  offset="0" style="stop-color:#ACD151"/>
						<stop  offset="1" style="stop-color:#89A852"/>
					</linearGradient>
					<path opacity="0.91" fill="url(#SVGID_9_)" d="M28.515,8.33l-0.121,0.168l2.29,0.023c0-0.096-0.039-0.157-0.039-0.169
						L28.515,8.33z M34.293,13.684V8.646c0-0.023-0.006-0.044-0.012-0.066c0-0.003,0-0.004,0-0.008l2.531,0.034l-3.777-6.443
						l-0.176,0.239l3.535,6.03l-2.531-0.035c0,0.002-0.002,0.006,0,0.009c0.008,0.021,0.014,0.042,0.014,0.066v5.036
						c0,0.126-0.1,0.228-0.225,0.228h-2.966c0.024,0.098,0.11,0.174,0.215,0.174h3.167C34.193,13.91,34.293,13.807,34.293,13.684z"
						/>
				</g>
			</g>
		</g>
	</g>
	<g>
		<path fill="#231F20" d="M23.22,36.203V35.1h1.549v-6h-1.452l0.239-1.08l2.461,0.012V35.1h1.535v1.104H23.22z"/>
		<path fill="#231F20" d="M33.275,35.255c-0.119,0.249-0.285,0.45-0.497,0.606s-0.458,0.271-0.738,0.348s-0.576,0.114-0.888,0.114
			s-0.612-0.036-0.9-0.108s-0.542-0.186-0.762-0.342s-0.396-0.357-0.528-0.605c-0.132-0.248-0.197-0.553-0.197-0.912l-0.013-4.176
			c0-0.368,0.063-0.694,0.19-0.978c0.127-0.284,0.297-0.522,0.511-0.714c0.215-0.192,0.465-0.336,0.752-0.432
			c0.288-0.096,0.591-0.144,0.911-0.144c0.384,0,0.734,0.038,1.05,0.114c0.316,0.076,0.646,0.206,0.99,0.39l-0.468,1.032
			c-0.256-0.144-0.517-0.256-0.78-0.336s-0.488-0.12-0.672-0.12c-0.416,0-0.724,0.102-0.924,0.306c-0.2,0.204-0.3,0.494-0.3,0.87
			L30,31.127c0.129-0.056,0.261-0.106,0.397-0.15s0.27-0.08,0.397-0.108c0.129-0.028,0.245-0.048,0.35-0.06
			c0.104-0.012,0.188-0.018,0.253-0.018c0.634,0,1.136,0.162,1.505,0.486c0.369,0.324,0.553,0.838,0.553,1.542v1.536
			C33.455,34.707,33.396,35.008,33.275,35.255z M32.232,32.747c0-0.304-0.085-0.518-0.254-0.642
			c-0.169-0.124-0.382-0.186-0.639-0.186c-0.161,0-0.37,0.03-0.628,0.09c-0.257,0.06-0.494,0.17-0.712,0.33v2.1
			c0,0.152,0.036,0.281,0.109,0.39c0.072,0.108,0.166,0.196,0.283,0.265c0.116,0.067,0.241,0.117,0.374,0.149
			s0.259,0.048,0.38,0.048c0.129,0,0.257-0.016,0.386-0.048s0.245-0.082,0.35-0.149c0.105-0.068,0.189-0.156,0.254-0.265
			s0.097-0.237,0.097-0.39V32.747z"/>
		<path fill="#231F20" d="M34.654,31.535v-1.224h1.225v1.224H34.654z M34.654,36.203v-1.225h1.225v1.225H34.654z"/>
		<path fill="#231F20" d="M41.566,35.117c-0.127,0.268-0.303,0.492-0.527,0.672s-0.484,0.314-0.779,0.402
			c-0.297,0.088-0.617,0.132-0.961,0.132c-0.328,0-0.662-0.034-1.002-0.103c-0.34-0.067-0.715-0.201-1.121-0.401l0.455-1.068
			c0.271,0.16,0.547,0.282,0.822,0.366s0.525,0.126,0.75,0.126c0.385,0,0.697-0.084,0.941-0.252s0.367-0.456,0.367-0.864v-0.924
			c-0.152,0.08-0.307,0.145-0.463,0.191c-0.156,0.049-0.313,0.082-0.469,0.103c-0.154,0.021-0.305,0.03-0.449,0.03
			c-0.137,0-0.264-0.004-0.385-0.012c-0.215-0.024-0.426-0.08-0.629-0.168c-0.205-0.088-0.383-0.211-0.535-0.367
			c-0.15-0.155-0.273-0.344-0.365-0.563s-0.139-0.474-0.139-0.762v-1.716c0-0.352,0.063-0.656,0.188-0.912
			c0.123-0.256,0.291-0.466,0.504-0.63c0.211-0.164,0.457-0.286,0.738-0.366c0.279-0.08,0.574-0.12,0.887-0.12
			s0.611,0.036,0.895,0.108c0.283,0.072,0.533,0.186,0.75,0.342c0.217,0.156,0.391,0.36,0.521,0.612
			c0.133,0.252,0.199,0.554,0.199,0.906v4.297C41.76,34.535,41.695,34.85,41.566,35.117z M40.408,29.405
			c-0.066-0.108-0.154-0.194-0.264-0.258c-0.107-0.064-0.227-0.112-0.359-0.144c-0.133-0.032-0.258-0.048-0.379-0.048
			c-0.127,0-0.258,0.02-0.389,0.06c-0.133,0.04-0.252,0.098-0.361,0.174c-0.107,0.076-0.195,0.17-0.264,0.282
			s-0.102,0.244-0.102,0.396v1.62c0,0.272,0.047,0.468,0.139,0.588s0.209,0.208,0.354,0.264c0.207,0.08,0.473,0.098,0.791,0.054
			c0.32-0.044,0.633-0.162,0.938-0.354v-2.244C40.512,29.643,40.477,29.513,40.408,29.405z"/>
	</g>
</g>
</svg>
