<?xml version="1.0" encoding="utf-8"?>
<!-- Generator: Adobe Illustrator 14.0.0, SVG Export Plug-In . SVG Version: 6.00 Build 43363)  -->
<!DOCTYPE svg PUBLIC "-//W3C//DTD SVG 1.1//EN" "http://www.w3.org/Graphics/SVG/1.1/DTD/svg11.dtd">
<svg version="1.1" id="Layer_1" xmlns="http://www.w3.org/2000/svg" xmlns:xlink="http://www.w3.org/1999/xlink" x="0px" y="0px"
	 width="64px" height="64px" viewBox="0 0 64 64" enable-background="new 0 0 64 64" xml:space="preserve">
<g>
	<g>
		<g>
			<path fill="#231F20" stroke="#231F20" stroke-width="4" stroke-linecap="round" stroke-linejoin="round" d="M61.131,57.099
				l-4.694-46.24c-0.159-1.563-1.327-2.83-2.61-2.83H10.831c-1.284,0-2.464,1.267-2.635,2.83l-5.065,46.24H61.131z"/>
			<g>
				<linearGradient id="SVGID_1_" gradientUnits="userSpaceOnUse" x1="29.7446" y1="30.8306" x2="32.224" y2="58.1033">
					<stop  offset="0" style="stop-color:#EEEFEF"/>
					<stop  offset="1" style="stop-color:#D0D0D3"/>
				</linearGradient>
				<path fill="url(#SVGID_1_)" d="M61.133,57.099l-4.694-46.24c-0.159-1.563-1.329-2.83-2.612-2.83H10.831
					c-1.284,0-2.462,1.267-2.633,2.83l-5.065,46.24H61.133z"/>
				<linearGradient id="SVGID_2_" gradientUnits="userSpaceOnUse" x1="32.8159" y1="20.7246" x2="32.566" y2="43.9675">
					<stop  offset="0" style="stop-color:#EEEFEF"/>
					<stop  offset="1" style="stop-color:#A6A7AA"/>
				</linearGradient>
				<path fill="url(#SVGID_2_)" d="M58.055,27.881l-1.004-9.928c-1.408,0.512-5.145,2.852-6.503,3.704
					c-1.072-1.528-7.596-11.625-11.104-12.559c-11.853,3.75-11.853,3.75-11.853,3.75s7.374,9.611,8.986,14.689
					c-0.257-0.18-0.497-0.318-0.523-0.221c-9.908,5.076-17.889-0.362-17.889-0.362s-2.408-5.731-3.747-14.606
					c-0.554-0.525-2.536-1.645-5.375-2.629c-0.557,0.519-0.965,1.279-1.06,2.139l-1.21,10.999c4.595,2.476,11.184,5.33,11.184,5.33
					s0,0,4.609,10.879c-7.427-3.762-13.017-5.143-16.969-5.522L3.932,48.697c12.915-1.26,28.077,8.151,28.077,8.151l-1.243-2.554
					c0,0,0,0-6.365-13.344c14.489,7.18,22.396,2.756,22.396,2.756s6.942,9.461,10.238,13.392h3.973l-2.521-24.94
					c-1.614,1.746-3.795,4.109-4.329,4.586c-3.194,4.352-7.146,5.802-7.146,5.802L37.23,28.043
					c1.934-1.083,9.573-5.385,12.859-6.099c-0.02,0.012-0.046,0.029-0.046,0.029S56.011,25.588,58.055,27.881z"/>
			</g>
			<linearGradient id="SVGID_3_" gradientUnits="userSpaceOnUse" x1="14.771" y1="20.5229" x2="14.5201" y2="43.8537">
				<stop  offset="0" style="stop-color:#EEEFEF"/>
				<stop  offset="1" style="stop-color:#A6A7AA"/>
			</linearGradient>
			<path fill="url(#SVGID_3_)" d="M6.575,33.632l-0.012,0.112c3.885,0.494,9.175,1.922,16.074,5.41
				c-0.087-0.193-0.167-0.375-0.25-0.562C15.545,35.273,10.315,33.992,6.575,33.632z"/>
			<linearGradient id="SVGID_4_" gradientUnits="userSpaceOnUse" x1="43.9932" y1="20.98" x2="43.7438" y2="44.1657">
				<stop  offset="0" style="stop-color:#EEEFEF"/>
				<stop  offset="1" style="stop-color:#A6A7AA"/>
			</linearGradient>
			<path fill="url(#SVGID_4_)" d="M40.372,45.138c3.406,0.06,5.667-0.603,6.735-1.019c-0.141-0.197-0.231-0.324-0.231-0.324
				S44.674,45.041,40.372,45.138z"/>
			<g opacity="0.6">
				<linearGradient id="SVGID_5_" gradientUnits="userSpaceOnUse" x1="44.7646" y1="20.8794" x2="44.4921" y2="46.2279">
					<stop  offset="0" style="stop-color:#EEEFEF"/>
					<stop  offset="1" style="stop-color:#A6A7AA"/>
				</linearGradient>
				<path fill="url(#SVGID_5_)" d="M38.444,8.055c-0.158,0.051,1.585,1.23,1.43,1.28c3.567,1.474,9.71,10.933,10.748,12.41
					c0.167-0.105,0.374-0.233,0.606-0.377C49.589,19.006,43.068,9.466,38.444,8.055z"/>
				<linearGradient id="SVGID_6_" gradientUnits="userSpaceOnUse" x1="18.3252" y1="20.4966" x2="18.0715" y2="44.0881">
					<stop  offset="0" style="stop-color:#EEEFEF"/>
					<stop  offset="1" style="stop-color:#A6A7AA"/>
				</linearGradient>
				<path fill="url(#SVGID_6_)" d="M18.229,27.043c0,0,3.855,2.651,9.639,2.52c-5.285-0.14-8.749-2.52-8.749-2.52
					s-2.432-5.731-3.807-14.606c-0.556-0.525-3.672-1.898-6.507-2.883C8.732,9.623,9.792,9.96,9.724,10.037
					c2.499,0.924,4.24,1.915,4.752,2.4C15.818,21.312,18.229,27.043,18.229,27.043z"/>
				<linearGradient id="SVGID_7_" gradientUnits="userSpaceOnUse" x1="43.877" y1="20.936" x2="43.6272" y2="44.165">
					<stop  offset="0" style="stop-color:#EEEFEF"/>
					<stop  offset="1" style="stop-color:#A6A7AA"/>
				</linearGradient>
				<path fill="url(#SVGID_7_)" d="M50.118,22.062c0,0,0.026-0.017,0.046-0.029c-3.287,0.713-10.929,5.015-12.862,6.099l9.79,14.504
					c0,0,0.268-0.1,0.718-0.318l-9.613-14.186c1.807-1.014,8.618-4.848,12.163-5.919C50.207,22.116,50.118,22.062,50.118,22.062z"/>
				<linearGradient id="SVGID_8_" gradientUnits="userSpaceOnUse" x1="29.083" y1="20.7354" x2="28.8329" y2="43.9937">
					<stop  offset="0" style="stop-color:#EEEFEF"/>
					<stop  offset="1" style="stop-color:#A6A7AA"/>
				</linearGradient>
				<path fill="url(#SVGID_8_)" d="M25.685,41.633c-0.401-0.189-0.804-0.385-1.213-0.594c6.371,13.344,6.371,13.344,6.371,13.344
					l0.864,1.778c0.878,0.478,1.379,0.775,1.379,0.775l-1.253-2.554C31.833,54.383,31.827,54.373,25.685,41.633z"/>
			</g>
		</g>
	</g>
	<g>
		<g>
			<path fill="#231F20" stroke="#231F20" stroke-width="2" d="M19.883,51.613c0.096-1.125,0.705-1.689,1.83-1.689h10.922
				c2.313-0.154,4.344-0.967,6.094-2.438c1.75-1.561,2.736-3.498,2.955-5.813c0.186-2.25-0.453-4.25-1.922-6
				c-1.438-1.686-3.314-2.609-5.627-2.766H23.213c-0.969,0-1.486-0.499-1.547-1.499v-0.095v-0.093l1.5-17.065
				c0.029-1.125,0.625-1.686,1.779-1.686h16.738c1.092,0,1.639,0.561,1.639,1.686c0,1.096-0.547,1.642-1.639,1.642H25.742v13.735
				h8.955c3.283,0,6.096,1.203,8.439,3.61c2.375,2.375,3.563,5.221,3.563,8.531c0,3.346-1.188,6.111-3.563,8.299
				c-2.283,2.188-5.111,3.281-8.486,3.281l-0.047,0.047H21.432C20.307,53.301,19.791,52.738,19.883,51.613z"/>
		</g>
		<g>
			<linearGradient id="SVGID_9_" gradientUnits="userSpaceOnUse" x1="32.9751" y1="21.0068" x2="33.3696" y2="53.3566">
				<stop  offset="0" style="stop-color:#2DB24A"/>
				<stop  offset="1" style="stop-color:#197C39"/>
			</linearGradient>
			<path fill="url(#SVGID_9_)" d="M19.883,51.412c0.096-1.125,0.705-1.689,1.83-1.689h10.922c2.313-0.154,4.344-0.967,6.094-2.438
				c1.75-1.561,2.736-3.498,2.955-5.813c0.186-2.25-0.453-4.25-1.922-6c-1.438-1.686-3.314-2.61-5.627-2.766H23.213
				c-0.969,0-1.486-0.499-1.547-1.499v-0.095V31.02l1.5-17.065c0.029-1.125,0.625-1.687,1.779-1.687h16.738
				c1.092,0,1.639,0.562,1.639,1.687c0,1.095-0.547,1.641-1.639,1.641H25.742v13.735h8.955c3.283,0,6.096,1.203,8.439,3.609
				c2.375,2.375,3.563,5.221,3.563,8.532c0,3.346-1.188,6.111-3.563,8.299c-2.283,2.188-5.111,3.281-8.486,3.281L34.604,53.1H21.432
				C20.307,53.1,19.791,52.537,19.883,51.412z"/>
		</g>
	</g>
</g>
</svg>
