<?xml version="1.0" encoding="UTF-8" standalone="no"?>
<!-- Generator: Adobe Illustrator 14.0.0, SVG Export Plug-In . SVG Version: 6.00 Build 43363)  -->

<svg
   xmlns:dc="http://purl.org/dc/elements/1.1/"
   xmlns:cc="http://creativecommons.org/ns#"
   xmlns:rdf="http://www.w3.org/1999/02/22-rdf-syntax-ns#"
   xmlns:svg="http://www.w3.org/2000/svg"
   xmlns="http://www.w3.org/2000/svg"
   xmlns:xlink="http://www.w3.org/1999/xlink"
   xmlns:sodipodi="http://sodipodi.sourceforge.net/DTD/sodipodi-0.dtd"
   xmlns:inkscape="http://www.inkscape.org/namespaces/inkscape"
   version="1.1"
   id="Layer_1"
   x="0px"
   y="0px"
   width="64px"
   height="64px"
   viewBox="0 0 64 64"
   enable-background="new 0 0 64 64"
   xml:space="preserve"
   inkscape:version="0.91 r13725"
   sodipodi:docname="ghostrace.svg"
   inkscape:export-filename="/data/game/stk-media/vector_art/open game art icons/path3573.png"
   inkscape:export-xdpi="180"
   inkscape:export-ydpi="180"><metadata
     id="metadata3544"><rdf:RDF><cc:Work
         rdf:about=""><dc:format>image/svg+xml</dc:format><dc:type
           rdf:resource="http://purl.org/dc/dcmitype/StillImage" /></cc:Work></rdf:RDF></metadata><defs
     id="defs3542"><linearGradient
       inkscape:collect="always"
       xlink:href="#SVGID_18_"
       id="linearGradient4381"
       x1="3.1391473"
       y1="19.956297"
       x2="30.165668"
       y2="19.956297"
       gradientUnits="userSpaceOnUse"
       gradientTransform="matrix(1.2474373,0,0,1.2767725,-0.77411793,-0.90224032)" /></defs><sodipodi:namedview
     pagecolor="#ffffff"
     bordercolor="#666666"
     borderopacity="1"
     objecttolerance="10"
     gridtolerance="10"
     guidetolerance="10"
     inkscape:pageopacity="0"
     inkscape:pageshadow="2"
     inkscape:window-width="1433"
     inkscape:window-height="684"
     id="namedview3540"
     showgrid="false"
     inkscape:zoom="1.5688932"
     inkscape:cx="-27.468956"
     inkscape:cy="63.968144"
     inkscape:window-x="90"
     inkscape:window-y="216"
     inkscape:window-maximized="0"
     inkscape:current-layer="Layer_1"
     showguides="true" /><g
     id="g3337"><path
       fill="#231F20"
       stroke="#231F20"
       stroke-width="4"
       stroke-linecap="round"
       stroke-linejoin="round"
       d="M61.111,57.525   c0,1.518-1.229,2.747-2.746,2.747H5.859c-1.518,0-2.746-1.229-2.746-2.747V6.242c0-1.518,1.229-2.748,2.746-2.748l52.506,0.001   c1.518-0.001,2.746,1.229,2.746,2.747V57.525z"
       id="path3339" /><linearGradient
       id="SVGID_1_"
       gradientUnits="userSpaceOnUse"
       x1="31.7246"
       y1="8.7935"
       x2="32.7246"
       y2="56.7935"><stop
         offset="0"
         style="stop-color:#EEEFEF"
         id="stop3342" /><stop
         offset="1"
         style="stop-color:#D0D0D3"
         id="stop3344" /></linearGradient><path
       fill="url(#SVGID_1_)"
       d="M61.203,57.426c0,1.518-1.229,2.746-2.746,2.746H5.953c-1.52,0-2.748-1.229-2.748-2.746V6.142   c0-1.518,1.23-2.747,2.748-2.747l52.504,0.001c1.518-0.001,2.746,1.229,2.746,2.746V57.426z"
       id="path3346" /></g><linearGradient
     id="SVGID_2_"
     gradientUnits="userSpaceOnUse"
     x1="57.998"
     y1="23.0786"
     x2="53.5646"
     y2="53.8501"><stop
       offset="0"
       style="stop-color:#D4D4D6"
       id="stop3349" /><stop
       offset="1"
       style="stop-color:#929396"
       id="stop3351" /></linearGradient><path
     fill="url(#SVGID_2_)"
     d="M61.482,27.346h-0.375c-5.432,5.981-16.08,19.612-7.838,32.927h0.375  C45.402,46.958,56.051,33.327,61.482,27.346z"
     id="path3353" /><linearGradient
     id="SVGID_3_"
     gradientUnits="userSpaceOnUse"
     x1="30.1973"
     y1="5.6025"
     x2="32.1972"
     y2="22.2686"><stop
       offset="0"
       style="stop-color:#71CDE5"
       id="stop3356" /><stop
       offset="1"
       style="stop-color:#36A1C1"
       id="stop3358" /></linearGradient><path
     d="M58.457,3.312H5.953c-1.518,0-2.748,1.23-2.748,2.748v32.119  c11.002-11.229,37.322-25.083,57.99-27.833C61.445,5.846,61.195,3.263,58.457,3.312z"
     id="path3360"
     fill="url(#SVGID_3_)" /><linearGradient
     id="SVGID_4_"
     gradientUnits="userSpaceOnUse"
     x1="57.5293"
     y1="33.1807"
     x2="58.0501"
     y2="58.1767"><stop
       offset="0"
       style="stop-color:#2DB24A"
       id="stop3363" /><stop
       offset="1"
       style="stop-color:#197C39"
       id="stop3365" /></linearGradient><path
     fill="url(#SVGID_4_)"
     d="M57.277,60.18l2.33,0.004c0.986,0,1.586-1.484,1.586-3.073V30.013  C57.943,35.096,49.611,46.596,57.277,60.18z"
     id="path3367" /><linearGradient
     id="SVGID_5_"
     gradientUnits="userSpaceOnUse"
     x1="34.2998"
     y1="21.3906"
     x2="29.2655"
     y2="56.333"><stop
       offset="0"
       style="stop-color:#D4D4D6"
       id="stop3370" /><stop
       offset="1"
       style="stop-color:#929396"
       id="stop3372" /></linearGradient><path
     d="M53.229,60.272c-8.264-13.35,2.463-27.018,7.883-32.975l-0.035-16.01  c-1.445,0.188-3.225,0.553-3.986,0.708C26.598,19.749,9.822,37.938,3.113,45.847v11.346v0.333c0,1.518,1.229,2.747,2.746,2.747  H53.229z"
     id="path3374"
     fill="url(#SVGID_5_)" /><g
     id="g3376"><g
       id="g3378"><linearGradient
         id="SVGID_6_"
         gradientUnits="userSpaceOnUse"
         x1="26.2783"
         y1="39.541"
         x2="26.6786"
         y2="58.7519"><stop
           offset="0"
           style="stop-color:#D4D4D6"
           id="stop3381" /><stop
           offset="1"
           style="stop-color:#929396"
           id="stop3383" /></linearGradient><path
         fill="url(#SVGID_6_)"
         d="M18.438,60.305c8.893,0,8.893,0,8.893,0s0.514-13.107,7.182-22.69    c-2.736-0.564-2.736-0.564-2.736-0.564S23.055,43.251,18.438,60.305z"
         id="path3385" /><linearGradient
         id="SVGID_7_"
         gradientUnits="userSpaceOnUse"
         x1="48.0322"
         y1="22.1494"
         x2="29.4387"
         y2="40.8712"><stop
           offset="0"
           style="stop-color:#D4D4D6"
           id="stop3388" /><stop
           offset="1"
           style="stop-color:#929396"
           id="stop3390" /></linearGradient><path
         fill="url(#SVGID_7_)"
         d="M39.555,28.544c0,0,4.873-5.387,10.258-7.182c0.514,0.641,0.514,0.641,0.514,0.641    s-7.311,5.002-8.721,7.438C40.066,28.8,39.555,28.544,39.555,28.544z"
         id="path3392" /><linearGradient
         id="SVGID_8_"
         gradientUnits="userSpaceOnUse"
         x1="60.3389"
         y1="15.8896"
         x2="55.8864"
         y2="20.3729"><stop
           offset="0"
           style="stop-color:#D4D4D6"
           id="stop3395" /><stop
           offset="1"
           style="stop-color:#929396"
           id="stop3397" /></linearGradient><path
         fill="url(#SVGID_8_)"
         d="M58.023,17.114l0.51,0.529c0,0,1.795-0.898,2.309-1.154c0-1.026,0-0.642,0-0.642    S59.131,16.531,58.023,17.114z"
         id="path3399" /></g><g
       id="g3401"><path
         fill="#FFFFFF"
         d="M18.154,60.305c8.891,0,8.891,0,8.891,0s0.514-13.107,7.182-22.69C31.49,37.05,31.49,37.05,31.49,37.05    S22.77,43.251,18.154,60.305z"
         id="path3403" /><path
         fill="#FFFFFF"
         d="M39.27,28.544c0,0,4.873-5.387,10.26-7.182c0.512,0.641,0.512,0.641,0.512,0.641s-7.309,5.002-8.721,7.438    C39.783,28.8,39.27,28.544,39.27,28.544z"
         id="path3405" /><path
         fill="#FFFFFF"
         d="M57.738,17.114l0.51,0.529c0,0,1.797-0.898,2.309-1.154c0-1.026,0-0.642,0-0.642    S58.848,16.531,57.738,17.114z"
         id="path3407" /></g></g><linearGradient
     id="SVGID_18_"
     gradientUnits="userSpaceOnUse"
     x1="32.3398"
     y1="32.6938"
     x2="38.1134"
     y2="28.8448"><stop
       offset="0"
       style="stop-color:#FFFFFF"
       id="stop3519" /><stop
       offset="0.2819"
       style="stop-color:#F3F4F4"
       id="stop3521" /><stop
       offset="0.7865"
       style="stop-color:#D4D6D7"
       id="stop3523" /><stop
       offset="1"
       style="stop-color:#C5C7C9"
       id="stop3525" /></linearGradient><linearGradient
     id="SVGID_19_"
     gradientUnits="userSpaceOnUse"
     x1="32.8169"
     y1="31.1465"
     x2="33.8638"
     y2="27.7559"><stop
       offset="0"
       style="stop-color:#FFFFFF"
       id="stop3530" /><stop
       offset="0.312"
       style="stop-color:#F3F4F4"
       id="stop3532" /><stop
       offset="0.8709"
       style="stop-color:#D4D6D7"
       id="stop3534" /><stop
       offset="1"
       style="stop-color:#CCCECF"
       id="stop3536" /></linearGradient><path
     style="opacity:0.82999998;fill:url(#linearGradient4381);fill-opacity:1;fill-rule:evenodd;stroke:#000000;stroke-width:0.8;stroke-linecap:butt;stroke-linejoin:miter;stroke-miterlimit:4;stroke-dasharray:none;stroke-opacity:1"
     d="M 6.7626214,9.9057203 C 9.6499745,5.4262701 14.673508,3.3910871 19.525389,3.4393865 c 3.922536,0.039048 9.303789,3.0142023 11.410759,6.0423667 4.433718,6.4272508 1.132547,19.0615368 3.536813,34.8951168 0,0 -1.350826,-2.122401 -2.902126,-2.043214 -1.5513,0.07919 -2.765894,2.150222 -4.280384,2.121721 -1.51449,-0.0285 -2.31976,-1.987218 -3.787896,-2.05864 -1.468136,-0.07142 -2.714641,1.757713 -4.151146,1.758031 -1.436505,3.18e-4 -2.41704,-1.658167 -3.786187,-1.601492 -1.276524,0.05284 -2.118069,1.726378 -3.394569,1.779792 -1.667445,0.06977 -2.9520921,-2.110247 -4.612925,-1.946306 -1.3064559,0.12896 -3.2592837,2.210925 -3.2592837,2.210925 C 6.6687344,26.443383 2.2545712,18.465167 6.7626214,9.9057203 Z"
     id="path3573"
     inkscape:connector-curvature="0"
     sodipodi:nodetypes="cscczzzzssscc" /><ellipse
     style="opacity:0.82999998;fill:#ffffff;fill-opacity:1;stroke:#000000;stroke-width:0.8;stroke-miterlimit:4;stroke-dasharray:none;stroke-opacity:1"
     id="path4391"
     cx="12.487091"
     cy="16.962547"
     rx="3.8243523"
     ry="3.1072862" /><ellipse
     style="opacity:0.82999998;fill:#ffffff;fill-opacity:1;stroke:#000000;stroke-width:0.8;stroke-miterlimit:4;stroke-dasharray:none;stroke-opacity:1"
     id="path4391-2"
     cx="24.220898"
     cy="16.992338"
     rx="3.8243523"
     ry="3.1072862" /><ellipse
     style="opacity:0.82999998;fill:#000000;fill-opacity:1;stroke:#000000;stroke-width:0.30000001;stroke-miterlimit:4;stroke-dasharray:none;stroke-opacity:1"
     id="path4408"
     cx="13.584661"
     cy="17.845989"
     rx="1.5934801"
     ry="1.1951101" /><ellipse
     style="opacity:0.82999998;fill:#000000;fill-opacity:1;stroke:#000000;stroke-width:0.30000001;stroke-miterlimit:4;stroke-dasharray:none;stroke-opacity:1"
     id="path4408-1"
     cx="22.786764"
     cy="17.789078"
     rx="1.5934801"
     ry="1.1951101" /></svg>