# Blender v2.66 (sub 1) OBJ File: 'lighthouse.blend'
# www.blender.org
o Circle.004_Circle.000
v 1.641853 -0.370405 -0.340503
v 1.641853 -0.370405 0.340502
v 1.641853 0.993668 0.340502
v 1.641853 0.993668 -0.340503
v 1.662072 0.931305 -0.027914
v 1.662072 0.931305 0.027914
v 1.662072 -0.350279 0.027914
v 1.662072 -0.350279 -0.027914
v 1.637264 -0.350279 -0.027914
v 1.637264 0.931305 -0.027914
v 1.637264 -0.350279 0.027914
v 1.637264 0.931305 0.027914
v 1.352776 -0.325172 0.718357
v 1.352776 -0.325172 -0.718357
v 1.905045 -0.325172 -0.718357
v 1.905045 -0.325172 0.718357
v 1.352776 -0.692108 0.718357
v 1.905045 -0.692108 0.718357
v 1.905045 -0.692108 -0.718357
v 1.352776 -0.692108 -0.718357
v 1.628060 0.931305 -0.132873
v 1.628060 0.931305 0.132872
v 1.628060 0.735361 -0.327679
v 1.628060 0.735361 0.327679
v 1.628060 -0.349183 0.327679
v 1.628060 -0.349183 -0.327679
v 1.719820 -0.349183 0.327679
v 1.719820 0.735361 0.327679
v 1.719820 -0.349183 -0.327679
v 1.719820 0.735361 -0.327679
v 1.719820 0.931305 -0.132873
v 1.719820 0.931305 0.132872
v 1.719820 -0.349183 0.649932
v 1.719820 1.017141 0.540744
v 1.719820 1.179541 -0.132873
v 1.719820 1.179541 0.132872
v 1.719820 -0.349183 -0.625585
v 1.719820 1.024622 -0.537106
v 1.692375 -0.349183 -0.625585
v 1.692375 1.024622 -0.537106
v 1.692375 -0.349183 0.649932
v 1.692375 1.017141 0.540744
v 1.692375 -0.349183 0.554978
v 1.692375 1.017141 0.445790
v 1.692375 -0.349183 -0.557022
v 1.692375 1.024622 -0.468543
v 1.662072 0.504110 0.055396
v 1.662072 0.076916 0.055396
v 1.662072 0.504110 -0.000432
v 1.662072 0.076916 -0.000432
v 1.637264 0.076916 -0.000432
v 1.637264 0.504110 -0.000432
v 1.637264 0.076916 0.055396
v 1.637264 0.504110 0.055396
v 1.639030 0.290513 0.127653
v 1.639030 0.267326 0.141040
v 1.639030 0.267326 0.167814
v 1.639030 0.290513 0.181200
v 1.639030 0.313699 0.167814
v 1.639030 0.313699 0.141040
v 1.660170 0.313699 0.141040
v 1.660170 0.313699 0.167814
v 1.660170 0.290513 0.181200
v 1.660170 0.267326 0.167814
v 1.660170 0.267326 0.141040
v 1.660170 0.290513 0.127653
v 1.680013 0.290513 0.122063
v 1.680013 0.262485 0.138245
v 1.680013 0.262485 0.170609
v 1.680013 0.290513 0.186790
v 1.680013 0.318541 0.170609
v 1.680013 0.318541 0.138245
v 1.697936 0.290513 0.154427
v 1.352776 -0.325172 0.239452
v 1.352776 -0.325172 -0.239452
v 1.905045 -0.325172 -0.239452
v 1.905045 -0.325172 0.239452
v 1.905045 -0.695188 0.239452
v 1.905045 -0.695188 -0.239452
v 1.352776 -0.698268 -0.239452
v 1.352776 -0.698268 0.239452
v 1.219167 -0.354693 -0.287397
v 1.771437 -0.354693 -0.287397
v 1.771437 -0.721629 -0.287397
v 1.219167 -0.354693 0.299213
v 1.771437 -0.354693 0.299213
v 1.771437 -0.724709 0.299213
v 1.507005 -0.835633 -0.412765
v 2.059274 -0.832553 -0.412765
v 2.059274 -0.462537 -0.412765
v 1.507005 -0.462537 -0.412765
v 2.059274 -0.829473 0.416645
v 1.507005 -0.829473 0.416645
v 2.059274 -0.462537 0.416645
v 1.507005 -0.462537 0.416645
v 0.711670 1.173293 -0.010936
v 0.711670 1.207301 0.051304
v 0.711670 1.275317 0.051304
v 0.711670 1.309325 -0.010936
v 0.711670 1.275317 -0.073177
v 0.711670 1.207301 -0.073177
v 2.071015 1.218463 -0.052747
v 2.071015 1.264155 -0.052747
v 2.071015 1.287000 -0.010936
v 2.071015 1.264155 0.030874
v 2.071015 1.218463 0.030874
v 2.071015 1.195618 -0.010936
v 1.164785 1.234604 -0.050858
v 1.617900 1.190275 -0.061166
v 1.164785 1.212791 -0.010936
v 1.617900 1.162830 -0.010936
v 1.164785 1.278231 -0.050858
v 1.617900 1.245168 -0.061166
v 1.164785 1.300044 -0.010936
v 1.617900 1.272613 -0.010936
v 1.164785 1.278231 0.028986
v 1.617900 1.245168 0.039294
v 1.164785 1.234604 0.028986
v 1.617900 1.190275 0.039294
v 1.516175 0.962690 0.552563
v 1.063060 1.007018 0.542255
v 1.516175 1.017583 0.552563
v 1.063060 1.050645 0.542255
v 1.516175 1.045028 0.502333
v 1.063060 1.072459 0.502333
v 1.516175 1.017583 0.452103
v 1.063060 1.050645 0.462411
v 1.516175 0.935245 0.502333
v 1.063060 0.985205 0.502333
v 1.516175 0.962690 0.452103
v 1.063060 1.007018 0.462411
v 1.969290 0.968033 0.502333
v 1.969290 0.990878 0.544143
v 1.969290 1.036569 0.544143
v 1.969290 1.059414 0.502333
v 1.969290 1.036569 0.460523
v 1.969290 0.990878 0.460523
v 0.609945 0.979715 0.440093
v 0.609945 1.047732 0.440093
v 0.609945 1.081740 0.502333
v 0.609945 1.047732 0.564574
v 0.609945 0.979715 0.564574
v 0.609945 0.945707 0.502333
v 0.609945 0.982531 -0.482382
v 0.609945 1.016539 -0.420142
v 0.609945 1.084556 -0.420142
v 0.609945 1.118564 -0.482382
v 0.609945 1.084556 -0.544623
v 0.609945 1.016539 -0.544623
v 1.969290 1.027702 -0.524193
v 1.969290 1.073393 -0.524193
v 1.969290 1.096238 -0.482383
v 1.969290 1.073393 -0.440572
v 1.969290 1.027702 -0.440572
v 1.969290 1.004857 -0.482383
v 1.063060 1.043843 -0.522304
v 1.516175 0.999514 -0.532612
v 1.063060 1.022029 -0.482382
v 1.516175 0.972069 -0.482382
v 1.063060 1.087469 -0.522304
v 1.516175 1.054407 -0.532612
v 1.063060 1.109283 -0.482382
v 1.516175 1.081852 -0.482382
v 1.063060 1.087469 -0.442461
v 1.516175 1.054407 -0.432152
v 1.063060 1.043843 -0.442461
v 1.516175 0.999514 -0.432152
v 1.711015 1.037614 0.495199
v 0.718705 1.037614 0.495198
v 0.811877 1.037614 0.493339
v 1.847582 1.037614 0.493340
v 0.811877 1.012283 0.482536
v 1.847582 1.012283 0.482536
v 1.984520 1.230265 0.000000
v 0.948814 1.230265 0.000000
v 1.984520 1.255596 0.000000
v 0.948814 1.255596 0.000000
v 1.984520 1.182935 0.164447
v 1.847582 1.110274 0.328893
v 1.984520 1.157604 0.160845
v 1.847582 1.084943 0.321691
v 0.948814 1.157604 0.160845
v 0.811877 1.084943 0.321691
v 0.948814 1.182935 0.164446
v 0.811877 1.110274 0.328893
v 0.848894 1.122986 0.349475
v 0.852472 1.212691 0.142185
v 0.846497 1.079158 0.334942
v 0.850135 1.168962 0.132236
v 1.898326 1.065858 0.347633
v 1.901963 1.155662 0.144926
v 1.900722 1.109686 0.362165
v 1.904300 1.199391 0.154875
v 1.706821 -0.258608 0.587980
v 1.706821 0.259880 0.550867
v 1.711015 0.778369 0.513755
v 0.714511 -0.258608 0.587980
v 0.714511 0.259880 0.550867
v 0.718705 0.778369 0.513754
v 0.714511 0.776492 0.487521
v 0.714511 0.517247 0.506077
v 0.714511 0.258003 0.524634
v 0.714511 -0.001242 0.543190
v 0.714511 -0.260486 0.561746
v 1.764271 0.776492 0.487522
v 1.764271 0.517247 0.506078
v 1.786634 0.268346 0.522509
v 1.786634 -0.011782 0.542560
v 1.788672 -0.234041 0.561746
v 0.714511 -0.519731 0.580303
v 1.788672 -0.519731 0.580303
v 1.788672 -0.517283 0.614497
v 0.714511 -0.517283 0.614497
v 1.788672 -0.231594 0.595940
v 1.786634 0.270991 0.559458
v 1.786634 -0.009138 0.579509
v 1.764271 0.778939 0.521716
v 1.764271 0.519695 0.540272
v 0.714511 -0.258039 0.595940
v 0.714511 0.260450 0.558828
v 0.714511 0.001206 0.577384
v 0.714511 0.778939 0.521715
v 0.714511 0.519695 0.540271
v 1.261117 0.293221 0.517399
v 1.261117 -0.037132 0.541045
v 1.261117 -0.034013 0.584619
v 1.261117 0.296340 0.560973
v 1.059746 0.871598 0.474200
v 1.404981 0.799690 0.475978
v 1.059746 0.481413 0.502128
v 1.404981 0.426982 0.502656
v 1.404981 0.430500 0.551815
v 1.059746 0.485097 0.553593
v 1.404981 0.803209 0.525137
v 1.059746 0.875282 0.525665
v 1.820148 1.011385 0.542174
v 1.816571 0.921680 0.749464
v 1.817812 0.967656 0.532225
v 1.814175 0.877851 0.734932
v 0.765984 0.980956 0.519535
v 0.762346 0.891151 0.722241
v 0.768320 1.024685 0.529484
v 0.764743 0.934980 0.736774
s off
f 1 4 3 2
f 13 17 18 16
f 15 19 20 14
f 28 34 33 27
f 31 35 36 32
f 28 32 36 34
f 30 29 37 38
f 30 38 35 31
f 38 37 39 40
f 33 34 42 41
f 41 42 44 43
f 40 39 45 46
f 6 47 49 5
f 47 48 50 49
f 48 7 8 50
f 5 49 52 10
f 49 50 51 52
f 50 8 9 51
f 7 48 53 11
f 48 47 54 53
f 47 6 12 54
f 16 77 74 13
f 76 15 14 75
f 18 78 77 16
f 79 19 15 76
f 76 75 80 79
f 74 77 78 81
f 86 83 82 85
f 87 84 83 86
f 91 90 89 88
f 92 89 90 94
f 94 90 91 95
f 95 93 92 94
f 171 173 181 179
f 178 180 174 176
f 172 183 181 173
f 182 175 174 180
f 170 171 179 185
f 184 178 176 177
f 186 192 193 187
f 188 189 191 190
f 192 190 191 193
f 186 188 190 192
f 187 193 191 189
f 178 184 182 180
f 243 241 239 237
f 237 239 238 236
f 241 240 238 239
f 243 237 236 242
s 1
f 24 28 27 25
f 23 26 29 30
f 21 23 30 31
f 21 31 32 22
f 22 32 28 24
f 55 60 61 66
f 60 59 62 61
f 59 58 63 62
f 58 57 64 63
f 57 56 65 64
f 56 55 66 65
f 65 66 67 68
f 64 65 68 69
f 63 64 69 70
f 62 63 70 71
f 61 62 71 72
f 66 61 72 67
f 67 72 73
f 72 71 73
f 71 70 73
f 70 69 73
f 69 68 73
f 68 67 73
f 103 104 105
f 102 103 105 106
f 102 106 107
f 110 96 101 108
f 108 109 111 110
f 109 102 107 111
f 100 112 108 101
f 112 113 109 108
f 113 103 102 109
f 99 114 112 100
f 114 115 113 112
f 115 104 103 113
f 98 116 114 99
f 116 117 115 114
f 117 105 104 115
f 97 118 116 98
f 118 119 117 116
f 119 106 105 117
f 96 110 118 97
f 110 111 119 118
f 111 107 106 119
f 128 132 133 120
f 129 128 120 121
f 143 129 121 142
f 120 133 134 122
f 121 120 122 123
f 142 121 123 141
f 122 134 135 124
f 123 122 124 125
f 141 123 125 140
f 124 135 136 126
f 125 124 126 127
f 140 125 127 139
f 126 136 137 130
f 127 126 130 131
f 139 127 131 138
f 130 137 132 128
f 131 130 128 129
f 129 143 138 131
f 137 133 132
f 137 136 134 133
f 136 135 134
f 151 152 153
f 150 151 153 154
f 150 154 155
f 158 144 149 156
f 156 157 159 158
f 157 150 155 159
f 148 160 156 149
f 160 161 157 156
f 161 151 150 157
f 147 162 160 148
f 162 163 161 160
f 163 152 151 161
f 146 164 162 147
f 164 165 163 162
f 165 153 152 163
f 145 166 164 146
f 166 167 165 164
f 167 154 153 165
f 144 158 166 145
f 158 159 167 166
f 159 155 154 167
f 196 168 169 199
f 211 210 204 209
f 204 219 214 209
f 212 214 219 213
f 207 208 225 224
f 224 225 203 202
f 208 216 226 225
f 225 226 221 203
f 202 220 227 224
f 224 227 215 207
f 216 215 227 226
f 226 227 220 221
f 205 206 231 229
f 229 231 230 228
f 228 230 201 200
f 206 218 232 231
f 231 232 233 230
f 230 233 223 201
f 200 222 235 228
f 228 235 234 229
f 229 234 217 205
f 218 217 234 232
f 232 234 235 233
f 233 235 222 223
f 205 217 218 206
f 207 215 216 208
f 209 214 212 211
f 194 196 199 197
f 195 198
