<?xml version="1.0" encoding="utf-8"?>
<!-- Generator: Adobe Illustrator 16.0.0, SVG Export Plug-In . SVG Version: 6.00 Build 0)  -->
<!DOCTYPE svg PUBLIC "-//W3C//DTD SVG 1.1//EN" "http://www.w3.org/Graphics/SVG/1.1/DTD/svg11.dtd">
<svg version="1.1" id="Calque_1" xmlns="http://www.w3.org/2000/svg" xmlns:xlink="http://www.w3.org/1999/xlink" x="0px" y="0px"
	 width="589.264px" height="589.113px" viewBox="0 0 589.264 589.113" enable-background="new 0 0 589.264 589.113"
	 xml:space="preserve">
<path fill="none" stroke="#1D1D1B" stroke-miterlimit="10" d="M569.219,294.556c0-30.108,18.596-53.852,19.798-64.146
	c2.868-21.628-19.798-84.961-40.885-98.668c-8.58-5.293-37.747-5.46-61.247-28.96s-24.85-54.089-29.425-61.711
	C447.218,25.782,384.218-2.552,358.79,0.185c-11.237,0.931-41.385,20.597-64.145,20.597S242.783,1.254,230.501,0.185
	c-21.949-0.736-84.282,24.597-98.674,40.888c-4.608,5.376-10.442,39.209-28.942,57.709s-56.448,30.248-61.724,32.957
	c-15.276,7.376-44.276,81.376-40.888,98.675c1.612,8.368,19.612,32.917,19.612,64.142s-18,55.774-19.612,64.142
	c-3.388,17.299,25.612,91.299,40.888,98.675c5.276,2.709,43.224,14.457,61.724,32.957s24.333,52.333,28.942,57.709
	c14.392,16.291,76.725,41.624,98.674,40.889c12.282-1.07,41.384-20.598,64.144-20.598s52.907,19.666,64.145,20.598
	c25.429,2.736,88.429-25.598,98.671-40.886c4.575-7.622,5.925-38.211,29.425-61.711s52.667-23.667,61.247-28.96
	c21.087-13.707,43.753-77.04,40.885-98.668C587.815,348.408,569.219,324.664,569.219,294.556z"/>
</svg>
